<?xml version="1.0" encoding="UTF-8"?>
<svg xmlns="http://www.w3.org/2000/svg" xmlns:xlink="http://www.w3.org/1999/xlink" width="20" height="20" viewBox="0 0 20 20">
  <title>Instagram</title>
  <desc>Logo</desc>
  <path d="M10 1.8h4c1 0 1.5.3 2 .4.4.2.7.4 1 .8.4.3.6.6.8 1 0 .5.3 1 .3 2 .2 1 .2 1.3.2 4v4c0 1-.3 1.5-.4 2-.2.4-.4.7-.8 1-.3.4-.6.6-1 .8-.5 0-1 .3-2 .3-1 .2-1.3.2-4 .2H6c-1 0-1.5-.3-2-.4-.4-.2-.7-.4-1-.8-.4-.3-.6-.6-.8-1 0-.5-.3-1-.3-2-.2-1-.2-1.3-.2-4V6c0-1 .3-1.5.4-2 .2-.4.4-.7.8-1 .3-.4.6-.6 1-.8.5 0 1-.3 2-.3 1-.2 1.3-.2 4-.2zM10 0H6C4.7 0 4 .4 3.3.6c-.6.3-1.2.6-1.7 1.2-.6.5-1 1-1.2 1.7C.3 4 0 4.8 0 6v8c0 1.2.3 2 .5 2.6.3.6.6 1.2 1.2 1.7.5.6 1 1 1.7 1.2.7.2 1.4.4 2.5.4h8c1.2 0 2-.3 2.6-.5.6-.3 1.2-.6 1.7-1.2.6-.5 1-1 1.2-1.7.2-.7.4-1.4.4-2.5v-4-4c0-1.2-.3-2-.5-2.6-.3-.6-.6-1.2-1.2-1.7-.5-.6-1-1-1.7-1.2C16 .3 15.2 0 14 0h-4zm0 5C7.2 5 5 7 5 10s2.2 5 5 5 5-2.2 5-5-2.2-5-5-5zm0 8.3c-1.8 0-3.3-1.5-3.3-3.3 0-1.8 1.5-3.3 3.3-3.3 1.8 0 3.3 1.5 3.3 3.3 0 1.8-1.5 3.3-3.3 3.3zm6.5-8.6c0 .6-.5 1.2-1.2 1.2-.6 0-1.2-.7-1.2-1.3 0-.7.7-1.2 1.3-1.2.7 0 1.2.5 1.2 1.2z" fill-rule="nonzero" fill="#FFF"></path>
</svg>
