<?xml version="1.0" encoding="UTF-8"?>
<svg xmlns="http://www.w3.org/2000/svg" xmlns:xlink="http://www.w3.org/1999/xlink" width="21" height="18" viewBox="0 0 21 18">
  <title>Twitter</title>
  <desc>Logo</desc>
  <path d="M21 2c-.8.4-1.6.6-2.5.7 1-.5 1.6-1.4 2-2.4-1 .5-1.8 1-2.8 1-.8-.8-2-1.3-3.2-1.3-2.3 0-4.3 2-4.3 4.3v1C7 5 3.7 3.3 1.6.8 1 1.4 1 2.2 1 3c0 1.4.6 2.8 1.8 3.5-.7 0-1.4-.2-2-.5 0 2 1.5 4 3.5 4.3h-2c.6 1.8 2.2 3 4 3-1.4 1.2-3.3 2-5.3 2-.3 0-.7 0-1-.2 2 1.3 4.2 2 6.6 2C14.6 17 19 10.6 19 5v-.6c.7-.6 1.4-1.3 2-2.2" fill-rule="nonzero" fill="#FFF"></path>
</svg>
